<svg id="Capa_1" enable-background="new 0 0 497 497" height="512" viewBox="0 0 497 497" width="512" xmlns="http://www.w3.org/2000/svg"><g><path d="m415.434 201.05h-38.858v-81.42h38.858c8.284 0 15 6.716 15 15v51.42c0 8.284-6.716 15-15 15z" fill="#afe582"/><path d="m442.431 134.63v51.42c0 8.28-6.71 15-15 15h-20c8.29 0 15-6.72 15-15v-51.42c0-8.28-6.71-15-15-15h20c8.29 0 15 6.72 15 15z" fill="#8bd581"/><path d="m415.434 140.82h-38.858v-81.42h38.858c8.284 0 15 6.716 15 15v51.42c0 8.284-6.716 15-15 15z" fill="#ff8692"/><path d="m442.431 74.4v51.42c0 8.28-6.71 15-15 15h-20c8.29 0 15-6.72 15-15v-51.42c0-8.28-6.71-15-15-15h20c8.29 0 15 6.72 15 15z" fill="#ff6a7e"/><path d="m358.72 497h-8.918l-19.643-10-19.641 10h-220.922c-5.523 0-10-4.477-10-10v-477c0-5.523 4.477-10 10-10h220.925l19.637 10 19.702-10h8.859c13.807 0 25 11.193 25 25v447c.001 13.807-11.192 25-24.999 25z" fill="#dfa8d2"/><path d="m403.721 25v447c0 13.81-11.19 25-25 25h-30c13.81 0 25-11.19 25-25v-447c0-13.81-11.19-25-25-25h30c13.81 0 25 11.19 25 25z" fill="#d691c6"/><g fill="#ffe177"><path d="m113.014 116.381-28.038 1h-12.427c-9.93 0-17.981-8.05-17.981-17.981 0-9.93 8.05-17.98 17.981-17.98h12.199l28.265 1c9.93 0 16.98 7.05 16.98 16.98.001 9.93-7.049 16.981-16.979 16.981z"/><path d="m113.014 214.781-30.002 2h-10.463c-9.93 0-17.981-8.05-17.981-17.981 0-9.93 8.05-17.98 17.981-17.98h10.462l30.002 2c9.93 0 15.98 6.05 15.98 15.98.001 9.93-6.049 15.981-15.979 15.981z"/><path d="m113.014 314.181-29.224 2h-11.241c-9.93 0-17.981-8.05-17.981-17.98 0-9.93 8.05-17.98 17.981-17.98h11.617l28.847 2c9.93 0 15.98 6.05 15.98 15.98.001 9.929-6.049 15.98-15.979 15.98z"/><path d="m113.014 413.581-30.002 2h-10.463c-9.93 0-17.981-8.05-17.981-17.98 0-9.93 8.05-17.98 17.981-17.98h11.309l29.156 2c9.93 0 15.98 6.05 15.98 15.98 0 9.929-6.05 15.98-15.98 15.98z"/></g><path d="m130.991 99.4c0 4.96-2.01 9.46-5.27 12.71-3.25 3.26-7.74 5.27-12.71 5.27h-30c4.97 0 9.46-2.01 12.71-5.27 3.26-3.25 5.27-7.75 5.27-12.71 0-9.93-8.05-17.98-17.98-17.98h30c9.93 0 17.98 8.05 17.98 17.98z" fill="#ffd15b"/><path d="m283.28 180.82h-113.244c-5.523 0-10-4.477-10-10v-101.582c0-5.523 4.477-10 10-10h113.244c5.523 0 10 4.477 10 10v101.582c0 5.522-4.478 10-10 10z" fill="#f9f7f8"/><path d="m329.801 497h-19.284v-497h19.284l9.999 311.87z" fill="#ffe177"/><path d="m280.521 59.24h30v121.58h-30z" fill="#efedef"/><path d="m130.991 198.8c0 4.96-2.01 9.46-5.27 12.71-3.25 3.26-7.74 5.27-12.71 5.27h-30c4.97 0 9.46-2.01 12.71-5.27 3.26-3.25 5.27-7.75 5.27-12.71 0-9.93-8.05-17.98-17.98-17.98h30c9.93 0 17.98 8.05 17.98 17.98z" fill="#ffd15b"/><path d="m130.991 298.2c0 4.96-2.01 9.46-5.27 12.71-3.25 3.26-7.74 5.27-12.71 5.27h-30c4.97 0 9.46-2.01 12.71-5.27 3.26-3.25 5.27-7.75 5.27-12.71 0-9.93-8.05-17.98-17.98-17.98h30c9.93 0 17.98 8.05 17.98 17.98z" fill="#ffd15b"/><path d="m130.991 397.6c0 4.96-2.01 9.46-5.27 12.71-3.25 3.26-7.74 5.27-12.71 5.27h-30c4.97 0 9.46-2.01 12.71-5.27 3.26-3.25 5.27-7.75 5.27-12.71 0-9.93-8.05-17.98-17.98-17.98h30c9.93 0 17.98 8.05 17.98 17.98z" fill="#ffd15b"/><path d="m329.801 0h20v497h-20z" fill="#ffd15b"/></g></svg>